<svg xmlns="http://www.w3.org/2000/svg" xmlns:xlink="http://www.w3.org/1999/xlink" width="500" zoomAndPan="magnify" viewBox="0 0 375 374.999991" height="500" preserveAspectRatio="xMidYMid meet" version="1.0"><defs><clipPath id="e4f50ac886"><path d="M 75 0 L 300 0 C 341.421875 0 375 33.578125 375 75 L 375 300 C 375 341.421875 341.421875 375 300 375 L 75 375 C 33.578125 375 0 341.421875 0 300 L 0 75 C 0 33.578125 33.578125 0 75 0 Z M 75 0 " clip-rule="nonzero"/></clipPath><clipPath id="38a7925b1b"><path d="M 0 0 L 375 0 L 375 375 L 0 375 Z M 0 0 " clip-rule="nonzero"/></clipPath><clipPath id="2aee6dcfcd"><path d="M 75 0 L 300 0 C 341.421875 0 375 33.578125 375 75 L 375 300 C 375 341.421875 341.421875 375 300 375 L 75 375 C 33.578125 375 0 341.421875 0 300 L 0 75 C 0 33.578125 33.578125 0 75 0 Z M 75 0 " clip-rule="nonzero"/></clipPath><clipPath id="cb05f4ab07"><rect x="0" width="375" y="0" height="375"/></clipPath><clipPath id="cd85e9c995"><path d="M 27.605469 251.460938 L 347.363281 251.460938 L 347.363281 344.90625 L 27.605469 344.90625 Z M 27.605469 251.460938 " clip-rule="nonzero"/></clipPath><clipPath id="ef37034423"><path d="M 300.640625 344.90625 L 74.34375 344.90625 C 61.953125 344.90625 50.066406 339.984375 41.304688 331.222656 C 32.542969 322.460938 27.621094 310.574219 27.621094 298.183594 C 27.621094 285.792969 32.542969 273.90625 41.304688 265.144531 C 50.066406 256.382812 61.953125 251.460938 74.34375 251.460938 L 300.640625 251.460938 C 313.03125 251.460938 324.917969 256.382812 333.679688 265.144531 C 342.441406 273.90625 347.363281 285.792969 347.363281 298.183594 C 347.363281 310.574219 342.441406 322.460938 333.679688 331.222656 C 324.917969 339.984375 313.03125 344.90625 300.640625 344.90625 Z M 300.640625 344.90625 " clip-rule="nonzero"/></clipPath><clipPath id="5c2e97f02b"><path d="M 0.605469 0.460938 L 320.363281 0.460938 L 320.363281 93.90625 L 0.605469 93.90625 Z M 0.605469 0.460938 " clip-rule="nonzero"/></clipPath><clipPath id="84802152ec"><path d="M 273.640625 93.90625 L 47.34375 93.90625 C 34.953125 93.90625 23.066406 88.984375 14.304688 80.222656 C 5.542969 71.460938 0.621094 59.574219 0.621094 47.183594 C 0.621094 34.792969 5.542969 22.90625 14.304688 14.144531 C 23.066406 5.382812 34.953125 0.460938 47.34375 0.460938 L 273.640625 0.460938 C 286.03125 0.460938 297.917969 5.382812 306.679688 14.144531 C 315.441406 22.90625 320.363281 34.792969 320.363281 47.183594 C 320.363281 59.574219 315.441406 71.460938 306.679688 80.222656 C 297.917969 88.984375 286.03125 93.90625 273.640625 93.90625 Z M 273.640625 93.90625 " clip-rule="nonzero"/></clipPath><clipPath id="0a9c427a4a"><rect x="0" width="321" y="0" height="94"/></clipPath><clipPath id="7807a62f68"><path d="M 27.605469 30.242188 L 347.363281 30.242188 L 347.363281 123.6875 L 27.605469 123.6875 Z M 27.605469 30.242188 " clip-rule="nonzero"/></clipPath><clipPath id="3b3f6d250c"><path d="M 300.640625 123.6875 L 74.34375 123.6875 C 61.953125 123.6875 50.066406 118.765625 41.304688 110.003906 C 32.542969 101.242188 27.621094 89.359375 27.621094 76.964844 C 27.621094 64.574219 32.542969 52.691406 41.304688 43.929688 C 50.066406 35.167969 61.953125 30.242188 74.34375 30.242188 L 300.640625 30.242188 C 313.03125 30.242188 324.917969 35.167969 333.679688 43.929688 C 342.441406 52.691406 347.363281 64.574219 347.363281 76.964844 C 347.363281 89.359375 342.441406 101.242188 333.679688 110.003906 C 324.917969 118.765625 313.03125 123.6875 300.640625 123.6875 Z M 300.640625 123.6875 " clip-rule="nonzero"/></clipPath><clipPath id="7cdb357c71"><path d="M 0.605469 0.242188 L 320.363281 0.242188 L 320.363281 93.6875 L 0.605469 93.6875 Z M 0.605469 0.242188 " clip-rule="nonzero"/></clipPath><clipPath id="505574c67d"><path d="M 273.640625 93.6875 L 47.34375 93.6875 C 34.953125 93.6875 23.066406 88.765625 14.304688 80.003906 C 5.542969 71.242188 0.621094 59.359375 0.621094 46.964844 C 0.621094 34.574219 5.542969 22.691406 14.304688 13.929688 C 23.066406 5.167969 34.953125 0.242188 47.34375 0.242188 L 273.640625 0.242188 C 286.03125 0.242188 297.917969 5.167969 306.679688 13.929688 C 315.441406 22.691406 320.363281 34.574219 320.363281 46.964844 C 320.363281 59.359375 315.441406 71.242188 306.679688 80.003906 C 297.917969 88.765625 286.03125 93.6875 273.640625 93.6875 Z M 273.640625 93.6875 " clip-rule="nonzero"/></clipPath><clipPath id="90d5084312"><rect x="0" width="321" y="0" height="94"/></clipPath><clipPath id="459f589087"><path d="M 139.808594 140.054688 L 235.242188 140.054688 L 235.242188 235.117188 L 139.808594 235.117188 Z M 139.808594 140.054688 " clip-rule="nonzero"/></clipPath><clipPath id="870fbfffb3"><path d="M 187.5 140.054688 C 161.160156 140.054688 139.808594 161.335938 139.808594 187.585938 C 139.808594 213.835938 161.160156 235.117188 187.5 235.117188 C 213.839844 235.117188 235.191406 213.835938 235.191406 187.585938 C 235.191406 161.335938 213.839844 140.054688 187.5 140.054688 Z M 187.5 140.054688 " clip-rule="nonzero"/></clipPath><clipPath id="f238014f78"><path d="M 0.808594 0.0546875 L 96.199219 0.0546875 L 96.199219 95.117188 L 0.808594 95.117188 Z M 0.808594 0.0546875 " clip-rule="nonzero"/></clipPath><clipPath id="7bfee06760"><path d="M 48.5 0.0546875 C 22.160156 0.0546875 0.808594 21.335938 0.808594 47.585938 C 0.808594 73.835938 22.160156 95.117188 48.5 95.117188 C 74.839844 95.117188 96.191406 73.835938 96.191406 47.585938 C 96.191406 21.335938 74.839844 0.0546875 48.5 0.0546875 Z M 48.5 0.0546875 " clip-rule="nonzero"/></clipPath><clipPath id="184b5a330e"><rect x="0" width="97" y="0" height="96"/></clipPath><clipPath id="0699a875ab"><path d="M 27.628906 140.054688 L 123.0625 140.054688 L 123.0625 235.117188 L 27.628906 235.117188 Z M 27.628906 140.054688 " clip-rule="nonzero"/></clipPath><clipPath id="49bd7d118c"><path d="M 75.320312 140.054688 C 48.980469 140.054688 27.628906 161.335938 27.628906 187.585938 C 27.628906 213.835938 48.980469 235.117188 75.320312 235.117188 C 101.660156 235.117188 123.011719 213.835938 123.011719 187.585938 C 123.011719 161.335938 101.660156 140.054688 75.320312 140.054688 Z M 75.320312 140.054688 " clip-rule="nonzero"/></clipPath><clipPath id="ded7a94d6f"><path d="M 0.628906 0.0546875 L 96.0625 0.0546875 L 96.0625 95.117188 L 0.628906 95.117188 Z M 0.628906 0.0546875 " clip-rule="nonzero"/></clipPath><clipPath id="772a0c894a"><path d="M 48.320312 0.0546875 C 21.980469 0.0546875 0.628906 21.335938 0.628906 47.585938 C 0.628906 73.835938 21.980469 95.117188 48.320312 95.117188 C 74.660156 95.117188 96.011719 73.835938 96.011719 47.585938 C 96.011719 21.335938 74.660156 0.0546875 48.320312 0.0546875 Z M 48.320312 0.0546875 " clip-rule="nonzero"/></clipPath><clipPath id="0c0536d1e6"><rect x="0" width="97" y="0" height="96"/></clipPath><clipPath id="17658cb6f9"><path d="M 251.691406 140.054688 L 347.125 140.054688 L 347.125 235.117188 L 251.691406 235.117188 Z M 251.691406 140.054688 " clip-rule="nonzero"/></clipPath><clipPath id="e8ec707308"><path d="M 299.382812 140.054688 C 273.042969 140.054688 251.691406 161.335938 251.691406 187.585938 C 251.691406 213.835938 273.042969 235.117188 299.382812 235.117188 C 325.722656 235.117188 347.074219 213.835938 347.074219 187.585938 C 347.074219 161.335938 325.722656 140.054688 299.382812 140.054688 Z M 299.382812 140.054688 " clip-rule="nonzero"/></clipPath><clipPath id="83a315ab8a"><path d="M 0.691406 0.0546875 L 96.125 0.0546875 L 96.125 95.117188 L 0.691406 95.117188 Z M 0.691406 0.0546875 " clip-rule="nonzero"/></clipPath><clipPath id="886ccd5917"><path d="M 48.382812 0.0546875 C 22.042969 0.0546875 0.691406 21.335938 0.691406 47.585938 C 0.691406 73.835938 22.042969 95.117188 48.382812 95.117188 C 74.722656 95.117188 96.074219 73.835938 96.074219 47.585938 C 96.074219 21.335938 74.722656 0.0546875 48.382812 0.0546875 Z M 48.382812 0.0546875 " clip-rule="nonzero"/></clipPath><clipPath id="f11cb99534"><rect x="0" width="97" y="0" height="96"/></clipPath></defs><g clip-path="url(#e4f50ac886)"><g transform="matrix(1, 0, 0, 1, 0, 0)"><g clip-path="url(#cb05f4ab07)"><g clip-path="url(#38a7925b1b)"><g clip-path="url(#2aee6dcfcd)"><rect x="-82.5" width="540" fill="#000000" height="539.999987" y="-82.499998" fill-opacity="1"/></g></g></g></g></g><g clip-path="url(#cd85e9c995)"><g clip-path="url(#ef37034423)"><g transform="matrix(1, 0, 0, 1, 27, 251)"><g clip-path="url(#0a9c427a4a)"><g clip-path="url(#5c2e97f02b)"><g clip-path="url(#84802152ec)"><path fill="#737373" d="M 320.363281 93.90625 L 0.605469 93.90625 L 0.605469 0.460938 L 320.363281 0.460938 Z M 320.363281 93.90625 " fill-opacity="1" fill-rule="nonzero"/></g></g></g></g></g></g><g clip-path="url(#7807a62f68)"><g clip-path="url(#3b3f6d250c)"><g transform="matrix(1, 0, 0, 1, 27, 30)"><g clip-path="url(#90d5084312)"><g clip-path="url(#7cdb357c71)"><g clip-path="url(#505574c67d)"><path fill="#737373" d="M 320.363281 93.6875 L 0.605469 93.6875 L 0.605469 0.242188 L 320.363281 0.242188 Z M 320.363281 93.6875 " fill-opacity="1" fill-rule="nonzero"/></g></g></g></g></g></g><g clip-path="url(#459f589087)"><g clip-path="url(#870fbfffb3)"><g transform="matrix(1, 0, 0, 1, 139, 140)"><g clip-path="url(#184b5a330e)"><g clip-path="url(#f238014f78)"><g clip-path="url(#7bfee06760)"><path fill="#00bf63" d="M 0.808594 0.0546875 L 96.242188 0.0546875 L 96.242188 95.117188 L 0.808594 95.117188 Z M 0.808594 0.0546875 " fill-opacity="1" fill-rule="nonzero"/></g></g></g></g></g></g><g clip-path="url(#0699a875ab)"><g clip-path="url(#49bd7d118c)"><g transform="matrix(1, 0, 0, 1, 27, 140)"><g clip-path="url(#0c0536d1e6)"><g clip-path="url(#ded7a94d6f)"><g clip-path="url(#772a0c894a)"><path fill="#ffffff" d="M 0.628906 0.0546875 L 96.0625 0.0546875 L 96.0625 95.117188 L 0.628906 95.117188 Z M 0.628906 0.0546875 " fill-opacity="1" fill-rule="nonzero"/></g></g></g></g></g></g><g clip-path="url(#17658cb6f9)"><g clip-path="url(#e8ec707308)"><g transform="matrix(1, 0, 0, 1, 251, 140)"><g clip-path="url(#f11cb99534)"><g clip-path="url(#83a315ab8a)"><g clip-path="url(#886ccd5917)"><path fill="#ffffff" d="M 0.691406 0.0546875 L 96.125 0.0546875 L 96.125 95.117188 L 0.691406 95.117188 Z M 0.691406 0.0546875 " fill-opacity="1" fill-rule="nonzero"/></g></g></g></g></g></g></svg>