<svg xmlns="http://www.w3.org/2000/svg" xmlns:xlink="http://www.w3.org/1999/xlink" width="500" zoomAndPan="magnify" viewBox="0 0 375 374.999991" height="500" preserveAspectRatio="xMidYMid meet" version="1.0"><defs><clipPath id="77362cbe1d"><path d="M 51 0 L 324 0 C 352.167969 0 375 22.832031 375 51 L 375 324 C 375 352.167969 352.167969 375 324 375 L 51 375 C 22.832031 375 0 352.167969 0 324 L 0 51 C 0 22.832031 22.832031 0 51 0 Z M 51 0 " clip-rule="nonzero"/></clipPath><clipPath id="2207e38481"><path d="M 0 0 L 375 0 L 375 375 L 0 375 Z M 0 0 " clip-rule="nonzero"/></clipPath><clipPath id="4c6cf88718"><path d="M 51 0 L 324 0 C 352.167969 0 375 22.832031 375 51 L 375 324 C 375 352.167969 352.167969 375 324 375 L 51 375 C 22.832031 375 0 352.167969 0 324 L 0 51 C 0 22.832031 22.832031 0 51 0 Z M 51 0 " clip-rule="nonzero"/></clipPath><clipPath id="a58ee2246d"><rect x="0" width="375" y="0" height="375"/></clipPath><clipPath id="96cf4cc601"><path d="M 139.167969 27.234375 L 236 27.234375 L 236 122.296875 L 139.167969 122.296875 Z M 139.167969 27.234375 " clip-rule="nonzero"/></clipPath><clipPath id="496f95978f"><path d="M 139.167969 91.546875 L 139.167969 57.984375 C 139.167969 49.832031 142.40625 42.007812 148.171875 36.242188 C 153.941406 30.476562 161.761719 27.234375 169.917969 27.234375 L 205.078125 27.234375 C 213.234375 27.234375 221.054688 30.476562 226.820312 36.242188 C 232.589844 42.007812 235.828125 49.832031 235.828125 57.984375 L 235.828125 91.546875 C 235.828125 99.703125 232.589844 107.523438 226.820312 113.292969 C 221.054688 119.058594 213.234375 122.296875 205.078125 122.296875 L 169.917969 122.296875 C 161.761719 122.296875 153.941406 119.058594 148.171875 113.292969 C 142.40625 107.523438 139.167969 99.703125 139.167969 91.546875 Z M 139.167969 91.546875 " clip-rule="nonzero"/></clipPath><clipPath id="51cac62ddc"><path d="M 0.167969 0.234375 L 96.921875 0.234375 L 96.921875 95.296875 L 0.167969 95.296875 Z M 0.167969 0.234375 " clip-rule="nonzero"/></clipPath><clipPath id="9f1cd01cca"><path d="M 0.167969 64.546875 L 0.167969 30.984375 C 0.167969 22.832031 3.40625 15.007812 9.171875 9.242188 C 14.941406 3.476562 22.761719 0.234375 30.917969 0.234375 L 66.078125 0.234375 C 74.234375 0.234375 82.054688 3.476562 87.820312 9.242188 C 93.589844 15.007812 96.828125 22.832031 96.828125 30.984375 L 96.828125 64.546875 C 96.828125 72.703125 93.589844 80.523438 87.820312 86.292969 C 82.054688 92.058594 74.234375 95.296875 66.078125 95.296875 L 30.917969 95.296875 C 22.761719 95.296875 14.941406 92.058594 9.171875 86.292969 C 3.40625 80.523438 0.167969 72.703125 0.167969 64.546875 Z M 0.167969 64.546875 " clip-rule="nonzero"/></clipPath><clipPath id="7b418dcf62"><rect x="0" width="97" y="0" height="96"/></clipPath><clipPath id="fd2f33736e"><path d="M 250.828125 27.234375 L 347.746094 27.234375 L 347.746094 122.296875 L 250.828125 122.296875 Z M 250.828125 27.234375 " clip-rule="nonzero"/></clipPath><clipPath id="f950322de1"><path d="M 250.828125 91.546875 L 250.828125 57.984375 C 250.828125 49.832031 254.066406 42.007812 259.835938 36.242188 C 265.601562 30.476562 273.421875 27.234375 281.578125 27.234375 L 316.738281 27.234375 C 324.894531 27.234375 332.714844 30.476562 338.484375 36.242188 C 344.25 42.007812 347.488281 49.832031 347.488281 57.984375 L 347.488281 91.546875 C 347.488281 99.703125 344.25 107.523438 338.484375 113.292969 C 332.714844 119.058594 324.894531 122.296875 316.738281 122.296875 L 281.578125 122.296875 C 273.421875 122.296875 265.601562 119.058594 259.835938 113.292969 C 254.066406 107.523438 250.828125 99.703125 250.828125 91.546875 Z M 250.828125 91.546875 " clip-rule="nonzero"/></clipPath><clipPath id="35ddbc3c7c"><path d="M 0.828125 0.234375 L 97.519531 0.234375 L 97.519531 95.296875 L 0.828125 95.296875 Z M 0.828125 0.234375 " clip-rule="nonzero"/></clipPath><clipPath id="ab0882afad"><path d="M 0.828125 64.546875 L 0.828125 30.984375 C 0.828125 22.832031 4.066406 15.007812 9.835938 9.242188 C 15.601562 3.476562 23.421875 0.234375 31.578125 0.234375 L 66.738281 0.234375 C 74.894531 0.234375 82.714844 3.476562 88.484375 9.242188 C 94.25 15.007812 97.488281 22.832031 97.488281 30.984375 L 97.488281 64.546875 C 97.488281 72.703125 94.25 80.523438 88.484375 86.292969 C 82.714844 92.058594 74.894531 95.296875 66.738281 95.296875 L 31.578125 95.296875 C 23.421875 95.296875 15.601562 92.058594 9.835938 86.292969 C 4.066406 80.523438 0.828125 72.703125 0.828125 64.546875 Z M 0.828125 64.546875 " clip-rule="nonzero"/></clipPath><clipPath id="bab4976e21"><rect x="0" width="98" y="0" height="96"/></clipPath><clipPath id="e9bcd6b62e"><path d="M 27.625 26.953125 L 124.542969 26.953125 L 124.542969 122.015625 L 27.625 122.015625 Z M 27.625 26.953125 " clip-rule="nonzero"/></clipPath><clipPath id="7740db22b9"><path d="M 27.625 91.265625 L 27.625 57.703125 C 27.625 49.546875 30.867188 41.726562 36.632812 35.960938 C 42.398438 30.191406 50.21875 26.953125 58.375 26.953125 L 93.539062 26.953125 C 101.691406 26.953125 109.515625 30.191406 115.28125 35.960938 C 121.046875 41.726562 124.289062 49.546875 124.289062 57.703125 L 124.289062 91.265625 C 124.289062 99.417969 121.046875 107.242188 115.28125 113.007812 C 109.515625 118.773438 101.691406 122.015625 93.539062 122.015625 L 58.375 122.015625 C 50.21875 122.015625 42.398438 118.773438 36.632812 113.007812 C 30.867188 107.242188 27.625 99.417969 27.625 91.265625 Z M 27.625 91.265625 " clip-rule="nonzero"/></clipPath><clipPath id="92416c98ac"><path d="M 0.625 0.953125 L 97.320312 0.953125 L 97.320312 96.015625 L 0.625 96.015625 Z M 0.625 0.953125 " clip-rule="nonzero"/></clipPath><clipPath id="ae78b481bd"><path d="M 0.625 65.265625 L 0.625 31.703125 C 0.625 23.546875 3.867188 15.726562 9.632812 9.960938 C 15.398438 4.191406 23.21875 0.953125 31.375 0.953125 L 66.539062 0.953125 C 74.691406 0.953125 82.515625 4.191406 88.28125 9.960938 C 94.046875 15.726562 97.289062 23.546875 97.289062 31.703125 L 97.289062 65.265625 C 97.289062 73.417969 94.046875 81.242188 88.28125 87.007812 C 82.515625 92.773438 74.691406 96.015625 66.539062 96.015625 L 31.375 96.015625 C 23.21875 96.015625 15.398438 92.773438 9.632812 87.007812 C 3.867188 81.242188 0.625 73.417969 0.625 65.265625 Z M 0.625 65.265625 " clip-rule="nonzero"/></clipPath><clipPath id="d145b2b16f"><rect x="0" width="98" y="0" height="97"/></clipPath><clipPath id="f9e56284e1"><path d="M 139.167969 139.960938 L 236 139.960938 L 236 235.023438 L 139.167969 235.023438 Z M 139.167969 139.960938 " clip-rule="nonzero"/></clipPath><clipPath id="76f8170d4a"><path d="M 139.167969 204.273438 L 139.167969 170.710938 C 139.167969 162.554688 142.40625 154.734375 148.171875 148.96875 C 153.941406 143.199219 161.761719 139.960938 169.917969 139.960938 L 205.078125 139.960938 C 213.234375 139.960938 221.054688 143.199219 226.820312 148.96875 C 232.589844 154.734375 235.828125 162.554688 235.828125 170.710938 L 235.828125 204.273438 C 235.828125 212.429688 232.589844 220.25 226.820312 226.015625 C 221.054688 231.78125 213.234375 235.023438 205.078125 235.023438 L 169.917969 235.023438 C 161.761719 235.023438 153.941406 231.78125 148.171875 226.015625 C 142.40625 220.25 139.167969 212.429688 139.167969 204.273438 Z M 139.167969 204.273438 " clip-rule="nonzero"/></clipPath><clipPath id="6f93b715c3"><path d="M 0.167969 0.960938 L 96.921875 0.960938 L 96.921875 96.023438 L 0.167969 96.023438 Z M 0.167969 0.960938 " clip-rule="nonzero"/></clipPath><clipPath id="41e265cd24"><path d="M 0.167969 65.273438 L 0.167969 31.710938 C 0.167969 23.554688 3.40625 15.734375 9.171875 9.96875 C 14.941406 4.199219 22.761719 0.960938 30.917969 0.960938 L 66.078125 0.960938 C 74.234375 0.960938 82.054688 4.199219 87.820312 9.96875 C 93.589844 15.734375 96.828125 23.554688 96.828125 31.710938 L 96.828125 65.273438 C 96.828125 73.429688 93.589844 81.25 87.820312 87.015625 C 82.054688 92.78125 74.234375 96.023438 66.078125 96.023438 L 30.917969 96.023438 C 22.761719 96.023438 14.941406 92.78125 9.171875 87.015625 C 3.40625 81.25 0.167969 73.429688 0.167969 65.273438 Z M 0.167969 65.273438 " clip-rule="nonzero"/></clipPath><clipPath id="13e3b0e6b9"><rect x="0" width="97" y="0" height="97"/></clipPath><clipPath id="fca2b1afda"><path d="M 139.167969 252.6875 L 236 252.6875 L 236 347.746094 L 139.167969 347.746094 Z M 139.167969 252.6875 " clip-rule="nonzero"/></clipPath><clipPath id="60a38e2470"><path d="M 139.167969 316.996094 L 139.167969 283.4375 C 139.167969 275.28125 142.40625 267.460938 148.171875 261.691406 C 153.941406 255.925781 161.761719 252.6875 169.917969 252.6875 L 205.078125 252.6875 C 213.234375 252.6875 221.054688 255.925781 226.820312 261.691406 C 232.589844 267.460938 235.828125 275.28125 235.828125 283.4375 L 235.828125 316.996094 C 235.828125 325.152344 232.589844 332.976562 226.820312 338.742188 C 221.054688 344.507812 213.234375 347.746094 205.078125 347.746094 L 169.917969 347.746094 C 161.761719 347.746094 153.941406 344.507812 148.171875 338.742188 C 142.40625 332.976562 139.167969 325.152344 139.167969 316.996094 Z M 139.167969 316.996094 " clip-rule="nonzero"/></clipPath><clipPath id="b81b32ddae"><path d="M 0.167969 0.6875 L 96.921875 0.6875 L 96.921875 95.746094 L 0.167969 95.746094 Z M 0.167969 0.6875 " clip-rule="nonzero"/></clipPath><clipPath id="9e0f82277d"><path d="M 0.167969 64.996094 L 0.167969 31.4375 C 0.167969 23.28125 3.40625 15.460938 9.171875 9.691406 C 14.941406 3.925781 22.761719 0.6875 30.917969 0.6875 L 66.078125 0.6875 C 74.234375 0.6875 82.054688 3.925781 87.820312 9.691406 C 93.589844 15.460938 96.828125 23.28125 96.828125 31.4375 L 96.828125 64.996094 C 96.828125 73.152344 93.589844 80.976562 87.820312 86.742188 C 82.054688 92.507812 74.234375 95.746094 66.078125 95.746094 L 30.917969 95.746094 C 22.761719 95.746094 14.941406 92.507812 9.171875 86.742188 C 3.40625 80.976562 0.167969 73.152344 0.167969 64.996094 Z M 0.167969 64.996094 " clip-rule="nonzero"/></clipPath><clipPath id="21937e09ec"><rect x="0" width="97" y="0" height="96"/></clipPath><clipPath id="b9b8316ba1"><path d="M 250.828125 139.960938 L 347.746094 139.960938 L 347.746094 235.023438 L 250.828125 235.023438 Z M 250.828125 139.960938 " clip-rule="nonzero"/></clipPath><clipPath id="12e9aff612"><path d="M 250.828125 204.273438 L 250.828125 170.710938 C 250.828125 162.554688 254.066406 154.734375 259.835938 148.96875 C 265.601562 143.199219 273.421875 139.960938 281.578125 139.960938 L 316.738281 139.960938 C 324.894531 139.960938 332.714844 143.199219 338.484375 148.96875 C 344.25 154.734375 347.488281 162.554688 347.488281 170.710938 L 347.488281 204.273438 C 347.488281 212.429688 344.25 220.25 338.484375 226.015625 C 332.714844 231.78125 324.894531 235.023438 316.738281 235.023438 L 281.578125 235.023438 C 273.421875 235.023438 265.601562 231.78125 259.835938 226.015625 C 254.066406 220.25 250.828125 212.429688 250.828125 204.273438 Z M 250.828125 204.273438 " clip-rule="nonzero"/></clipPath><clipPath id="06af70a3c0"><path d="M 0.828125 0.960938 L 97.519531 0.960938 L 97.519531 96.023438 L 0.828125 96.023438 Z M 0.828125 0.960938 " clip-rule="nonzero"/></clipPath><clipPath id="c7af3dc2a8"><path d="M 0.828125 65.273438 L 0.828125 31.710938 C 0.828125 23.554688 4.066406 15.734375 9.835938 9.96875 C 15.601562 4.199219 23.421875 0.960938 31.578125 0.960938 L 66.738281 0.960938 C 74.894531 0.960938 82.714844 4.199219 88.484375 9.96875 C 94.25 15.734375 97.488281 23.554688 97.488281 31.710938 L 97.488281 65.273438 C 97.488281 73.429688 94.25 81.25 88.484375 87.015625 C 82.714844 92.78125 74.894531 96.023438 66.738281 96.023438 L 31.578125 96.023438 C 23.421875 96.023438 15.601562 92.78125 9.835938 87.015625 C 4.066406 81.25 0.828125 73.429688 0.828125 65.273438 Z M 0.828125 65.273438 " clip-rule="nonzero"/></clipPath><clipPath id="6064b3743d"><rect x="0" width="98" y="0" height="97"/></clipPath><clipPath id="31e231f7ef"><path d="M 250.828125 252.6875 L 347.746094 252.6875 L 347.746094 347.746094 L 250.828125 347.746094 Z M 250.828125 252.6875 " clip-rule="nonzero"/></clipPath><clipPath id="f122bf9879"><path d="M 250.828125 316.996094 L 250.828125 283.4375 C 250.828125 275.28125 254.066406 267.460938 259.835938 261.691406 C 265.601562 255.925781 273.421875 252.6875 281.578125 252.6875 L 316.738281 252.6875 C 324.894531 252.6875 332.714844 255.925781 338.484375 261.691406 C 344.25 267.460938 347.488281 275.28125 347.488281 283.4375 L 347.488281 316.996094 C 347.488281 325.152344 344.25 332.976562 338.484375 338.742188 C 332.714844 344.507812 324.894531 347.746094 316.738281 347.746094 L 281.578125 347.746094 C 273.421875 347.746094 265.601562 344.507812 259.835938 338.742188 C 254.066406 332.976562 250.828125 325.152344 250.828125 316.996094 Z M 250.828125 316.996094 " clip-rule="nonzero"/></clipPath><clipPath id="b31cbe7213"><path d="M 0.828125 0.6875 L 97.519531 0.6875 L 97.519531 95.746094 L 0.828125 95.746094 Z M 0.828125 0.6875 " clip-rule="nonzero"/></clipPath><clipPath id="4e0eedc689"><path d="M 0.828125 64.996094 L 0.828125 31.4375 C 0.828125 23.28125 4.066406 15.460938 9.835938 9.691406 C 15.601562 3.925781 23.421875 0.6875 31.578125 0.6875 L 66.738281 0.6875 C 74.894531 0.6875 82.714844 3.925781 88.484375 9.691406 C 94.25 15.460938 97.488281 23.28125 97.488281 31.4375 L 97.488281 64.996094 C 97.488281 73.152344 94.25 80.976562 88.484375 86.742188 C 82.714844 92.507812 74.894531 95.746094 66.738281 95.746094 L 31.578125 95.746094 C 23.421875 95.746094 15.601562 92.507812 9.835938 86.742188 C 4.066406 80.976562 0.828125 73.152344 0.828125 64.996094 Z M 0.828125 64.996094 " clip-rule="nonzero"/></clipPath><clipPath id="5d912d80e9"><rect x="0" width="98" y="0" height="96"/></clipPath><clipPath id="e4c27f2a43"><path d="M 27.625 139.960938 L 124.542969 139.960938 L 124.542969 235.023438 L 27.625 235.023438 Z M 27.625 139.960938 " clip-rule="nonzero"/></clipPath><clipPath id="c8d856ec58"><path d="M 27.625 204.273438 L 27.625 170.710938 C 27.625 162.554688 30.867188 154.734375 36.632812 148.96875 C 42.398438 143.199219 50.21875 139.960938 58.375 139.960938 L 93.539062 139.960938 C 101.691406 139.960938 109.515625 143.199219 115.28125 148.96875 C 121.046875 154.734375 124.289062 162.554688 124.289062 170.710938 L 124.289062 204.273438 C 124.289062 212.429688 121.046875 220.25 115.28125 226.015625 C 109.515625 231.78125 101.691406 235.023438 93.539062 235.023438 L 58.375 235.023438 C 50.21875 235.023438 42.398438 231.78125 36.632812 226.015625 C 30.867188 220.25 27.625 212.429688 27.625 204.273438 Z M 27.625 204.273438 " clip-rule="nonzero"/></clipPath><clipPath id="4ef8bc23bf"><path d="M 0.625 0.960938 L 97.320312 0.960938 L 97.320312 96.023438 L 0.625 96.023438 Z M 0.625 0.960938 " clip-rule="nonzero"/></clipPath><clipPath id="64b87bbcc3"><path d="M 0.625 65.273438 L 0.625 31.710938 C 0.625 23.554688 3.867188 15.734375 9.632812 9.96875 C 15.398438 4.199219 23.21875 0.960938 31.375 0.960938 L 66.539062 0.960938 C 74.691406 0.960938 82.515625 4.199219 88.28125 9.96875 C 94.046875 15.734375 97.289062 23.554688 97.289062 31.710938 L 97.289062 65.273438 C 97.289062 73.429688 94.046875 81.25 88.28125 87.015625 C 82.515625 92.78125 74.691406 96.023438 66.539062 96.023438 L 31.375 96.023438 C 23.21875 96.023438 15.398438 92.78125 9.632812 87.015625 C 3.867188 81.25 0.625 73.429688 0.625 65.273438 Z M 0.625 65.273438 " clip-rule="nonzero"/></clipPath><clipPath id="7a7c548699"><rect x="0" width="98" y="0" height="97"/></clipPath><clipPath id="f7261e5ee6"><path d="M 27.625 252.96875 L 124.542969 252.96875 L 124.542969 348.03125 L 27.625 348.03125 Z M 27.625 252.96875 " clip-rule="nonzero"/></clipPath><clipPath id="0fa433fa26"><path d="M 27.625 317.28125 L 27.625 283.71875 C 27.625 275.5625 30.867188 267.742188 36.632812 261.976562 C 42.398438 256.210938 50.21875 252.96875 58.375 252.96875 L 93.539062 252.96875 C 101.691406 252.96875 109.515625 256.210938 115.28125 261.976562 C 121.046875 267.742188 124.289062 275.5625 124.289062 283.71875 L 124.289062 317.28125 C 124.289062 325.4375 121.046875 333.257812 115.28125 339.023438 C 109.515625 344.792969 101.691406 348.03125 93.539062 348.03125 L 58.375 348.03125 C 50.21875 348.03125 42.398438 344.792969 36.632812 339.023438 C 30.867188 333.257812 27.625 325.4375 27.625 317.28125 Z M 27.625 317.28125 " clip-rule="nonzero"/></clipPath><clipPath id="98aa557c46"><path d="M 0.625 0.96875 L 97.320312 0.96875 L 97.320312 96.03125 L 0.625 96.03125 Z M 0.625 0.96875 " clip-rule="nonzero"/></clipPath><clipPath id="7cd829de22"><path d="M 0.625 65.28125 L 0.625 31.71875 C 0.625 23.5625 3.867188 15.742188 9.632812 9.976562 C 15.398438 4.210938 23.21875 0.96875 31.375 0.96875 L 66.539062 0.96875 C 74.691406 0.96875 82.515625 4.210938 88.28125 9.976562 C 94.046875 15.742188 97.289062 23.5625 97.289062 31.71875 L 97.289062 65.28125 C 97.289062 73.4375 94.046875 81.257812 88.28125 87.023438 C 82.515625 92.792969 74.691406 96.03125 66.539062 96.03125 L 31.375 96.03125 C 23.21875 96.03125 15.398438 92.792969 9.632812 87.023438 C 3.867188 81.257812 0.625 73.4375 0.625 65.28125 Z M 0.625 65.28125 " clip-rule="nonzero"/></clipPath><clipPath id="daf0b15961"><rect x="0" width="98" y="0" height="97"/></clipPath></defs><g clip-path="url(#77362cbe1d)"><g transform="matrix(1, 0, 0, 1, 0, 0)"><g clip-path="url(#a58ee2246d)"><g clip-path="url(#2207e38481)"><g clip-path="url(#4c6cf88718)"><rect x="-82.5" width="540" fill="#000000" height="539.999987" y="-82.499998" fill-opacity="1"/></g></g></g></g></g><g clip-path="url(#96cf4cc601)"><g clip-path="url(#496f95978f)"><g transform="matrix(1, 0, 0, 1, 139, 27)"><g clip-path="url(#7b418dcf62)"><g clip-path="url(#51cac62ddc)"><g clip-path="url(#9f1cd01cca)"><path fill="#ffffff" d="M 0.167969 95.296875 L 0.167969 0.234375 L 96.714844 0.234375 L 96.714844 95.296875 Z M 0.167969 95.296875 " fill-opacity="1" fill-rule="nonzero"/></g></g></g></g></g></g><g clip-path="url(#fd2f33736e)"><g clip-path="url(#f950322de1)"><g transform="matrix(1, 0, 0, 1, 250, 27)"><g clip-path="url(#bab4976e21)"><g clip-path="url(#35ddbc3c7c)"><g clip-path="url(#ab0882afad)"><path fill="#545454" d="M 0.828125 95.296875 L 0.828125 0.234375 L 97.375 0.234375 L 97.375 95.296875 Z M 0.828125 95.296875 " fill-opacity="1" fill-rule="nonzero"/></g></g></g></g></g></g><g clip-path="url(#e9bcd6b62e)"><g clip-path="url(#7740db22b9)"><g transform="matrix(1, 0, 0, 1, 27, 26)"><g clip-path="url(#d145b2b16f)"><g clip-path="url(#92416c98ac)"><g clip-path="url(#ae78b481bd)"><path fill="#fd4747" d="M 0.625 96.015625 L 0.625 0.953125 L 97.171875 0.953125 L 97.171875 96.015625 Z M 0.625 96.015625 " fill-opacity="1" fill-rule="nonzero"/></g></g></g></g></g></g><g clip-path="url(#f9e56284e1)"><g clip-path="url(#76f8170d4a)"><g transform="matrix(1, 0, 0, 1, 139, 139)"><g clip-path="url(#13e3b0e6b9)"><g clip-path="url(#6f93b715c3)"><g clip-path="url(#41e265cd24)"><path fill="#545454" d="M 0.167969 96.023438 L 0.167969 0.960938 L 96.714844 0.960938 L 96.714844 96.023438 Z M 0.167969 96.023438 " fill-opacity="1" fill-rule="nonzero"/></g></g></g></g></g></g><g clip-path="url(#fca2b1afda)"><g clip-path="url(#60a38e2470)"><g transform="matrix(1, 0, 0, 1, 139, 252)"><g clip-path="url(#21937e09ec)"><g clip-path="url(#b81b32ddae)"><g clip-path="url(#9e0f82277d)"><path fill="#ffde59" d="M 0.167969 95.746094 L 0.167969 0.6875 L 96.714844 0.6875 L 96.714844 95.746094 Z M 0.167969 95.746094 " fill-opacity="1" fill-rule="nonzero"/></g></g></g></g></g></g><g clip-path="url(#b9b8316ba1)"><g clip-path="url(#12e9aff612)"><g transform="matrix(1, 0, 0, 1, 250, 139)"><g clip-path="url(#6064b3743d)"><g clip-path="url(#06af70a3c0)"><g clip-path="url(#c7af3dc2a8)"><path fill="#545454" d="M 0.828125 96.023438 L 0.828125 0.960938 L 97.375 0.960938 L 97.375 96.023438 Z M 0.828125 96.023438 " fill-opacity="1" fill-rule="nonzero"/></g></g></g></g></g></g><g clip-path="url(#31e231f7ef)"><g clip-path="url(#f122bf9879)"><g transform="matrix(1, 0, 0, 1, 250, 252)"><g clip-path="url(#5d912d80e9)"><g clip-path="url(#b31cbe7213)"><g clip-path="url(#4e0eedc689)"><path fill="#00bf63" d="M 0.828125 95.746094 L 0.828125 0.6875 L 97.375 0.6875 L 97.375 95.746094 Z M 0.828125 95.746094 " fill-opacity="1" fill-rule="nonzero"/></g></g></g></g></g></g><g clip-path="url(#e4c27f2a43)"><g clip-path="url(#c8d856ec58)"><g transform="matrix(1, 0, 0, 1, 27, 139)"><g clip-path="url(#7a7c548699)"><g clip-path="url(#4ef8bc23bf)"><g clip-path="url(#64b87bbcc3)"><path fill="#38b6ff" d="M 0.625 96.023438 L 0.625 0.960938 L 97.171875 0.960938 L 97.171875 96.023438 Z M 0.625 96.023438 " fill-opacity="1" fill-rule="nonzero"/></g></g></g></g></g></g><g clip-path="url(#f7261e5ee6)"><g clip-path="url(#0fa433fa26)"><g transform="matrix(1, 0, 0, 1, 27, 252)"><g clip-path="url(#daf0b15961)"><g clip-path="url(#98aa557c46)"><g clip-path="url(#7cd829de22)"><path fill="#545454" d="M 0.625 96.03125 L 0.625 0.96875 L 97.171875 0.96875 L 97.171875 96.03125 Z M 0.625 96.03125 " fill-opacity="1" fill-rule="nonzero"/></g></g></g></g></g></g></svg>