<svg xmlns="http://www.w3.org/2000/svg" xmlns:xlink="http://www.w3.org/1999/xlink" width="500" zoomAndPan="magnify" viewBox="0 0 375 374.999991" height="500" preserveAspectRatio="xMidYMid meet" version="1.0"><defs><g/><clipPath id="d27c827382"><path d="M 0.519531 7 L 236 7 L 236 363 L 0.519531 363 Z M 0.519531 7 " clip-rule="nonzero"/></clipPath><clipPath id="0e8e4bb240"><rect x="0" width="245" y="0" height="375"/></clipPath></defs><g transform="matrix(1, 0, 0, 1, 65, 0)"><g clip-path="url(#0e8e4bb240)"><g clip-path="url(#d27c827382)"><g fill="#000000" fill-opacity="1"><g transform="translate(0.636997, 357.091167)"><g><path d="M 69.53125 -121.625 L 69.53125 -141.890625 C 69.53125 -151.640625 70.75 -160.441406 73.1875 -168.296875 C 75.625 -176.148438 79.984375 -183.613281 86.265625 -190.6875 C 92.554688 -197.757812 101.28125 -204.832031 112.4375 -211.90625 C 123.125 -218.65625 130.976562 -224.503906 136 -229.453125 C 141.03125 -234.410156 144.332031 -238.96875 145.90625 -243.125 C 147.476562 -247.289062 148.265625 -251.5 148.265625 -255.75 C 148.265625 -262.34375 145.273438 -267.5625 139.296875 -271.40625 C 133.328125 -275.257812 125.550781 -277.1875 115.96875 -277.1875 C 104.03125 -277.1875 91.101562 -275.066406 77.1875 -270.828125 C 63.28125 -266.585938 48.472656 -260.300781 32.765625 -251.96875 L 0 -316.09375 C 17.757812 -326.300781 36.695312 -334.429688 56.8125 -340.484375 C 76.925781 -346.535156 98.84375 -349.5625 122.5625 -349.5625 C 158.238281 -349.5625 185.894531 -341.664062 205.53125 -325.875 C 225.175781 -310.082031 235 -289.300781 235 -263.53125 C 235 -251.269531 233.113281 -240.03125 229.34375 -229.8125 C 225.570312 -219.601562 219.597656 -210.019531 211.421875 -201.0625 C 203.253906 -192.101562 192.492188 -183.300781 179.140625 -174.65625 C 169.710938 -168.6875 162.285156 -163.578125 156.859375 -159.328125 C 151.441406 -155.085938 147.59375 -151.003906 145.3125 -147.078125 C 143.03125 -143.148438 141.890625 -138.671875 141.890625 -133.640625 L 141.890625 -121.625 Z M 59.40625 -39.125 C 59.40625 -55.78125 64.234375 -67.488281 73.890625 -74.25 C 83.554688 -81.007812 95.304688 -84.390625 109.140625 -84.390625 C 122.335938 -84.390625 133.765625 -81.007812 143.421875 -74.25 C 153.085938 -67.488281 157.921875 -55.78125 157.921875 -39.125 C 157.921875 -23.257812 153.085938 -11.789062 143.421875 -4.71875 C 133.765625 2.351562 122.335938 5.890625 109.140625 5.890625 C 95.304688 5.890625 83.554688 2.351562 73.890625 -4.71875 C 64.234375 -11.789062 59.40625 -23.257812 59.40625 -39.125 Z M 59.40625 -39.125 "/></g></g></g></g></g></g></svg>